<svg xmlns="http://www.w3.org/2000/svg" viewBox="0 0 128 128">
  <!-- Background circle - EU blue -->
  <circle cx="64" cy="64" r="60" fill="#003399"/>
  
  <!-- EU Stars in a circle -->
  <g fill="#FFCC00">
    <!-- 12 stars arranged in a circle -->
    <polygon points="64,12 66.5,19.5 74,19.5 68,24.5 70.5,32 64,27 57.5,32 60,24.5 54,19.5 61.5,19.5" />
    <polygon points="94.5,22.5 92,30 99,33 91.5,36 92.5,44 87.5,38 81,42.5 84.5,35.5 79,30 86.5,30.5" />
    <polygon points="112,52.5 104.5,52 103.5,59.5 99,53 91.5,55.5 97,49.5 93,42.5 100,45.5 105.5,40 105,47.5" />
    <polygon points="116,84 109,81 105,87.5 105.5,80 98,77 106,75.5 107,68 110.5,74.5 118,73.5 112,78.5" />
    <polygon points="104.5,109.5 99,104 92,108 96,101 90,95.5 98,96.5 101,89.5 102.5,97 110,98.5 103,102" />
    <polygon points="80,124 77.5,117 70,118.5 75.5,113 72,106 78.5,110 84,105 82.5,112.5 89,116.5 81.5,117.5" />
    <polygon points="48,124 50.5,117 58,118.5 52.5,113 56,106 49.5,110 44,105 45.5,112.5 39,116.5 46.5,117.5" />
    <polygon points="23.5,109.5 29,104 36,108 32,101 38,95.5 30,96.5 27,89.5 25.5,97 18,98.5 25,102" />
    <polygon points="12,84 19,81 23,87.5 22.5,80 30,77 22,75.5 21,68 17.5,74.5 10,73.5 16,78.5" />
    <polygon points="16,52.5 23.5,52 24.5,59.5 29,53 36.5,55.5 31,49.5 35,42.5 28,45.5 22.5,40 23,47.5" />
    <polygon points="33.5,22.5 36,30 29,33 36.5,36 35.5,44 40.5,38 47,42.5 43.5,35.5 49,30 41.5,30.5" />
    <polygon points="64,12 61.5,19.5 54,19.5 60,24.5 57.5,32 64,27 70.5,32 68,24.5 74,19.5 66.5,19.5" />
  </g>
  
  <!-- Checkmark in center -->
  <path d="M45 64 L58 77 L83 52" stroke="white" stroke-width="8" stroke-linecap="round" stroke-linejoin="round" fill="none"/>
</svg>
