<svg width="1500" height="500" xmlns="http://www.w3.org/2000/svg">
  <defs>
    <linearGradient id="bgGradient" x1="0%" y1="0%" x2="100%" y2="100%">
      <stop offset="0%" style="stop-color:#003399;stop-opacity:1" />
      <stop offset="100%" style="stop-color:#0055aa;stop-opacity:1" />
    </linearGradient>
    <linearGradient id="goldGradient" x1="0%" y1="0%" x2="100%" y2="0%">
      <stop offset="0%" style="stop-color:#FFD700;stop-opacity:1" />
      <stop offset="100%" style="stop-color:#FFA500;stop-opacity:1" />
    </linearGradient>
  </defs>
  
  <!-- Background -->
  <rect width="1500" height="500" fill="url(#bgGradient)"/>
  
  <!-- Decorative stars (EU theme) -->
  <g fill="#FFD700" opacity="0.3">
    <circle cx="100" cy="100" r="8"/>
    <circle cx="150" cy="80" r="6"/>
    <circle cx="80" cy="150" r="5"/>
    <circle cx="1400" cy="100" r="8"/>
    <circle cx="1350" cy="130" r="6"/>
    <circle cx="1420" cy="160" r="5"/>
    <circle cx="100" cy="400" r="7"/>
    <circle cx="1400" cy="380" r="7"/>
  </g>
  
  <!-- EU Stars Circle -->
  <g transform="translate(200, 250)">
    <circle cx="0" cy="0" r="80" fill="none" stroke="#FFD700" stroke-width="2" opacity="0.5"/>
    <!-- 12 EU stars -->
    <g fill="#FFD700">
      <polygon points="0,-70 4,-58 16,-58 6,-50 10,-38 0,-46 -10,-38 -6,-50 -16,-58 -4,-58" transform="rotate(0)"/>
      <polygon points="0,-70 4,-58 16,-58 6,-50 10,-38 0,-46 -10,-38 -6,-50 -16,-58 -4,-58" transform="rotate(30)"/>
      <polygon points="0,-70 4,-58 16,-58 6,-50 10,-38 0,-46 -10,-38 -6,-50 -16,-58 -4,-58" transform="rotate(60)"/>
      <polygon points="0,-70 4,-58 16,-58 6,-50 10,-38 0,-46 -10,-38 -6,-50 -16,-58 -4,-58" transform="rotate(90)"/>
      <polygon points="0,-70 4,-58 16,-58 6,-50 10,-38 0,-46 -10,-38 -6,-50 -16,-58 -4,-58" transform="rotate(120)"/>
      <polygon points="0,-70 4,-58 16,-58 6,-50 10,-38 0,-46 -10,-38 -6,-50 -16,-58 -4,-58" transform="rotate(150)"/>
      <polygon points="0,-70 4,-58 16,-58 6,-50 10,-38 0,-46 -10,-38 -6,-50 -16,-58 -4,-58" transform="rotate(180)"/>
      <polygon points="0,-70 4,-58 16,-58 6,-50 10,-38 0,-46 -10,-38 -6,-50 -16,-58 -4,-58" transform="rotate(210)"/>
      <polygon points="0,-70 4,-58 16,-58 6,-50 10,-38 0,-46 -10,-38 -6,-50 -16,-58 -4,-58" transform="rotate(240)"/>
      <polygon points="0,-70 4,-58 16,-58 6,-50 10,-38 0,-46 -10,-38 -6,-50 -16,-58 -4,-58" transform="rotate(270)"/>
      <polygon points="0,-70 4,-58 16,-58 6,-50 10,-38 0,-46 -10,-38 -6,-50 -16,-58 -4,-58" transform="rotate(300)"/>
      <polygon points="0,-70 4,-58 16,-58 6,-50 10,-38 0,-46 -10,-38 -6,-50 -16,-58 -4,-58" transform="rotate(330)"/>
    </g>
  </g>
  
  <!-- Main Text -->
  <text x="750" y="200" font-family="Arial, Helvetica, sans-serif" font-size="72" font-weight="bold" fill="white" text-anchor="middle">EuroCheck</text>
  
  <!-- Tagline -->
  <text x="750" y="280" font-family="Arial, Helvetica, sans-serif" font-size="32" fill="url(#goldGradient)" text-anchor="middle">Know Where Your Products Come From</text>
  
  <!-- Features -->
  <g font-family="Arial, Helvetica, sans-serif" font-size="22" fill="white" opacity="0.9">
    <text x="550" y="360" text-anchor="middle">🇪🇺 European Origins</text>
    <text x="750" y="360" text-anchor="middle">🔒 Privacy-First</text>
    <text x="950" y="360" text-anchor="middle">💚 Free Forever</text>
  </g>
  
  <!-- CTA -->
  <rect x="600" y="400" width="300" height="50" rx="25" fill="url(#goldGradient)"/>
  <text x="750" y="433" font-family="Arial, Helvetica, sans-serif" font-size="20" font-weight="bold" fill="#003399" text-anchor="middle">Available on Chrome</text>
</svg>
